G04 #@! TF.GenerationSoftware,KiCad,Pcbnew,(5.1.10)-1*
G04 #@! TF.CreationDate,2021-07-27T11:24:41-04:00*
G04 #@! TF.ProjectId,7ac76369a0fd96fdd889728fa7417171,37616337-3633-4363-9961-306664393666,rev?*
G04 #@! TF.SameCoordinates,Original*
G04 #@! TF.FileFunction,Legend,Bot*
G04 #@! TF.FilePolarity,Positive*
%FSLAX46Y46*%
G04 Gerber Fmt 4.6, Leading zero omitted, Abs format (unit mm)*
G04 Created by KiCad (PCBNEW (5.1.10)-1) date 2021-07-27 11:24:41*
%MOMM*%
%LPD*%
G01*
G04 APERTURE LIST*
%ADD10C,0.150000*%
%ADD11C,0.100000*%
%ADD12C,0.120000*%
G04 APERTURE END LIST*
D10*
X185229428Y-84842000D02*
X185300857Y-84806285D01*
X185408000Y-84806285D01*
X185515142Y-84842000D01*
X185586571Y-84913428D01*
X185622285Y-84984857D01*
X185658000Y-85127714D01*
X185658000Y-85234857D01*
X185622285Y-85377714D01*
X185586571Y-85449142D01*
X185515142Y-85520571D01*
X185408000Y-85556285D01*
X185336571Y-85556285D01*
X185229428Y-85520571D01*
X185193714Y-85484857D01*
X185193714Y-85234857D01*
X185336571Y-85234857D01*
X184872285Y-85556285D02*
X184872285Y-84806285D01*
X184443714Y-85556285D01*
X184443714Y-84806285D01*
X184086571Y-85556285D02*
X184086571Y-84806285D01*
X183908000Y-84806285D01*
X183800857Y-84842000D01*
X183729428Y-84913428D01*
X183693714Y-84984857D01*
X183658000Y-85127714D01*
X183658000Y-85234857D01*
X183693714Y-85377714D01*
X183729428Y-85449142D01*
X183800857Y-85520571D01*
X183908000Y-85556285D01*
X184086571Y-85556285D01*
X184257142Y-74519285D02*
X184614285Y-74519285D01*
X184650000Y-74876428D01*
X184614285Y-74840714D01*
X184542857Y-74805000D01*
X184364285Y-74805000D01*
X184292857Y-74840714D01*
X184257142Y-74876428D01*
X184221428Y-74947857D01*
X184221428Y-75126428D01*
X184257142Y-75197857D01*
X184292857Y-75233571D01*
X184364285Y-75269285D01*
X184542857Y-75269285D01*
X184614285Y-75233571D01*
X184650000Y-75197857D01*
X183971428Y-74769285D02*
X183792857Y-75269285D01*
X183614285Y-74769285D01*
D11*
X192542428Y-77899285D02*
X192542428Y-77149285D01*
X192363857Y-77149285D01*
X192256714Y-77185000D01*
X192185285Y-77256428D01*
X192149571Y-77327857D01*
X192113857Y-77470714D01*
X192113857Y-77577857D01*
X192149571Y-77720714D01*
X192185285Y-77792142D01*
X192256714Y-77863571D01*
X192363857Y-77899285D01*
X192542428Y-77899285D01*
X191792428Y-77899285D02*
X191792428Y-77399285D01*
X191792428Y-77149285D02*
X191828142Y-77185000D01*
X191792428Y-77220714D01*
X191756714Y-77185000D01*
X191792428Y-77149285D01*
X191792428Y-77220714D01*
X191542428Y-77399285D02*
X191256714Y-77399285D01*
X191435285Y-77899285D02*
X191435285Y-77256428D01*
X191399571Y-77185000D01*
X191328142Y-77149285D01*
X191256714Y-77149285D01*
X191113857Y-77399285D02*
X190828142Y-77399285D01*
X191006714Y-77899285D02*
X191006714Y-77256428D01*
X190971000Y-77185000D01*
X190899571Y-77149285D01*
X190828142Y-77149285D01*
X190292428Y-77863571D02*
X190363857Y-77899285D01*
X190506714Y-77899285D01*
X190578142Y-77863571D01*
X190613857Y-77792142D01*
X190613857Y-77506428D01*
X190578142Y-77435000D01*
X190506714Y-77399285D01*
X190363857Y-77399285D01*
X190292428Y-77435000D01*
X190256714Y-77506428D01*
X190256714Y-77577857D01*
X190613857Y-77649285D01*
X189935285Y-77899285D02*
X189935285Y-77399285D01*
X189935285Y-77542142D02*
X189899571Y-77470714D01*
X189863857Y-77435000D01*
X189792428Y-77399285D01*
X189721000Y-77399285D01*
X189185285Y-77863571D02*
X189256714Y-77899285D01*
X189399571Y-77899285D01*
X189471000Y-77863571D01*
X189506714Y-77792142D01*
X189506714Y-77506428D01*
X189471000Y-77435000D01*
X189399571Y-77399285D01*
X189256714Y-77399285D01*
X189185285Y-77435000D01*
X189149571Y-77506428D01*
X189149571Y-77577857D01*
X189506714Y-77649285D01*
X188828142Y-77399285D02*
X188828142Y-77899285D01*
X188828142Y-77470714D02*
X188792428Y-77435000D01*
X188721000Y-77399285D01*
X188613857Y-77399285D01*
X188542428Y-77435000D01*
X188506714Y-77506428D01*
X188506714Y-77899285D01*
X188256714Y-77399285D02*
X187971000Y-77399285D01*
X188149571Y-77149285D02*
X188149571Y-77792142D01*
X188113857Y-77863571D01*
X188042428Y-77899285D01*
X187971000Y-77899285D01*
X187721000Y-77899285D02*
X187721000Y-77399285D01*
X187721000Y-77149285D02*
X187756714Y-77185000D01*
X187721000Y-77220714D01*
X187685285Y-77185000D01*
X187721000Y-77149285D01*
X187721000Y-77220714D01*
X187042428Y-77899285D02*
X187042428Y-77506428D01*
X187078142Y-77435000D01*
X187149571Y-77399285D01*
X187292428Y-77399285D01*
X187363857Y-77435000D01*
X187042428Y-77863571D02*
X187113857Y-77899285D01*
X187292428Y-77899285D01*
X187363857Y-77863571D01*
X187399571Y-77792142D01*
X187399571Y-77720714D01*
X187363857Y-77649285D01*
X187292428Y-77613571D01*
X187113857Y-77613571D01*
X187042428Y-77577857D01*
X186578142Y-77899285D02*
X186649571Y-77863571D01*
X186685285Y-77792142D01*
X186685285Y-77149285D01*
X192542428Y-78731428D02*
X192292428Y-78731428D01*
X192185285Y-79124285D02*
X192542428Y-79124285D01*
X192542428Y-78374285D01*
X192185285Y-78374285D01*
X191863857Y-78624285D02*
X191863857Y-79124285D01*
X191863857Y-78695714D02*
X191828142Y-78660000D01*
X191756714Y-78624285D01*
X191649571Y-78624285D01*
X191578142Y-78660000D01*
X191542428Y-78731428D01*
X191542428Y-79124285D01*
X190863857Y-79088571D02*
X190935285Y-79124285D01*
X191078142Y-79124285D01*
X191149571Y-79088571D01*
X191185285Y-79052857D01*
X191221000Y-78981428D01*
X191221000Y-78767142D01*
X191185285Y-78695714D01*
X191149571Y-78660000D01*
X191078142Y-78624285D01*
X190935285Y-78624285D01*
X190863857Y-78660000D01*
X190435285Y-79124285D02*
X190506714Y-79088571D01*
X190542428Y-79052857D01*
X190578142Y-78981428D01*
X190578142Y-78767142D01*
X190542428Y-78695714D01*
X190506714Y-78660000D01*
X190435285Y-78624285D01*
X190328142Y-78624285D01*
X190256714Y-78660000D01*
X190221000Y-78695714D01*
X190185285Y-78767142D01*
X190185285Y-78981428D01*
X190221000Y-79052857D01*
X190256714Y-79088571D01*
X190328142Y-79124285D01*
X190435285Y-79124285D01*
X189542428Y-79124285D02*
X189542428Y-78374285D01*
X189542428Y-79088571D02*
X189613857Y-79124285D01*
X189756714Y-79124285D01*
X189828142Y-79088571D01*
X189863857Y-79052857D01*
X189899571Y-78981428D01*
X189899571Y-78767142D01*
X189863857Y-78695714D01*
X189828142Y-78660000D01*
X189756714Y-78624285D01*
X189613857Y-78624285D01*
X189542428Y-78660000D01*
X188899571Y-79088571D02*
X188971000Y-79124285D01*
X189113857Y-79124285D01*
X189185285Y-79088571D01*
X189221000Y-79017142D01*
X189221000Y-78731428D01*
X189185285Y-78660000D01*
X189113857Y-78624285D01*
X188971000Y-78624285D01*
X188899571Y-78660000D01*
X188863857Y-78731428D01*
X188863857Y-78802857D01*
X189221000Y-78874285D01*
X188542428Y-79124285D02*
X188542428Y-78624285D01*
X188542428Y-78767142D02*
X188506714Y-78695714D01*
X188471000Y-78660000D01*
X188399571Y-78624285D01*
X188328142Y-78624285D01*
X187542428Y-78910000D02*
X187185285Y-78910000D01*
X187613857Y-79124285D02*
X187363857Y-78374285D01*
X187113857Y-79124285D01*
X186542428Y-79124285D02*
X186542428Y-78374285D01*
X186542428Y-79088571D02*
X186613857Y-79124285D01*
X186756714Y-79124285D01*
X186828142Y-79088571D01*
X186863857Y-79052857D01*
X186899571Y-78981428D01*
X186899571Y-78767142D01*
X186863857Y-78695714D01*
X186828142Y-78660000D01*
X186756714Y-78624285D01*
X186613857Y-78624285D01*
X186542428Y-78660000D01*
X185863857Y-79124285D02*
X185863857Y-78731428D01*
X185899571Y-78660000D01*
X185971000Y-78624285D01*
X186113857Y-78624285D01*
X186185285Y-78660000D01*
X185863857Y-79088571D02*
X185935285Y-79124285D01*
X186113857Y-79124285D01*
X186185285Y-79088571D01*
X186221000Y-79017142D01*
X186221000Y-78945714D01*
X186185285Y-78874285D01*
X186113857Y-78838571D01*
X185935285Y-78838571D01*
X185863857Y-78802857D01*
X185506714Y-78624285D02*
X185506714Y-79374285D01*
X185506714Y-78660000D02*
X185435285Y-78624285D01*
X185292428Y-78624285D01*
X185221000Y-78660000D01*
X185185285Y-78695714D01*
X185149571Y-78767142D01*
X185149571Y-78981428D01*
X185185285Y-79052857D01*
X185221000Y-79088571D01*
X185292428Y-79124285D01*
X185435285Y-79124285D01*
X185506714Y-79088571D01*
X184935285Y-78624285D02*
X184649571Y-78624285D01*
X184828142Y-78374285D02*
X184828142Y-79017142D01*
X184792428Y-79088571D01*
X184721000Y-79124285D01*
X184649571Y-79124285D01*
X184113857Y-79088571D02*
X184185285Y-79124285D01*
X184328142Y-79124285D01*
X184399571Y-79088571D01*
X184435285Y-79017142D01*
X184435285Y-78731428D01*
X184399571Y-78660000D01*
X184328142Y-78624285D01*
X184185285Y-78624285D01*
X184113857Y-78660000D01*
X184078142Y-78731428D01*
X184078142Y-78802857D01*
X184435285Y-78874285D01*
X183756714Y-79124285D02*
X183756714Y-78624285D01*
X183756714Y-78767142D02*
X183721000Y-78695714D01*
X183685285Y-78660000D01*
X183613857Y-78624285D01*
X183542428Y-78624285D01*
X192613857Y-80824285D02*
X192435285Y-81574285D01*
X192292428Y-81038571D01*
X192149571Y-81574285D01*
X191971000Y-80824285D01*
X191399571Y-81538571D02*
X191471000Y-81574285D01*
X191613857Y-81574285D01*
X191685285Y-81538571D01*
X191721000Y-81467142D01*
X191721000Y-81181428D01*
X191685285Y-81110000D01*
X191613857Y-81074285D01*
X191471000Y-81074285D01*
X191399571Y-81110000D01*
X191363857Y-81181428D01*
X191363857Y-81252857D01*
X191721000Y-81324285D01*
X191149571Y-81074285D02*
X190863857Y-81074285D01*
X191042428Y-80824285D02*
X191042428Y-81467142D01*
X191006714Y-81538571D01*
X190935285Y-81574285D01*
X190863857Y-81574285D01*
X190613857Y-81574285D02*
X190613857Y-81074285D01*
X190613857Y-81145714D02*
X190578142Y-81110000D01*
X190506714Y-81074285D01*
X190399571Y-81074285D01*
X190328142Y-81110000D01*
X190292428Y-81181428D01*
X190292428Y-81574285D01*
X190292428Y-81181428D02*
X190256714Y-81110000D01*
X190185285Y-81074285D01*
X190078142Y-81074285D01*
X190006714Y-81110000D01*
X189971000Y-81181428D01*
X189971000Y-81574285D01*
X189328142Y-81538571D02*
X189399571Y-81574285D01*
X189542428Y-81574285D01*
X189613857Y-81538571D01*
X189649571Y-81467142D01*
X189649571Y-81181428D01*
X189613857Y-81110000D01*
X189542428Y-81074285D01*
X189399571Y-81074285D01*
X189328142Y-81110000D01*
X189292428Y-81181428D01*
X189292428Y-81252857D01*
X189649571Y-81324285D01*
X188863857Y-81574285D02*
X188935285Y-81538571D01*
X188971000Y-81467142D01*
X188971000Y-80824285D01*
X188471000Y-81574285D02*
X188542428Y-81538571D01*
X188578142Y-81502857D01*
X188613857Y-81431428D01*
X188613857Y-81217142D01*
X188578142Y-81145714D01*
X188542428Y-81110000D01*
X188471000Y-81074285D01*
X188363857Y-81074285D01*
X188292428Y-81110000D01*
X188256714Y-81145714D01*
X188221000Y-81217142D01*
X188221000Y-81431428D01*
X188256714Y-81502857D01*
X188292428Y-81538571D01*
X188363857Y-81574285D01*
X188471000Y-81574285D01*
X187899571Y-81074285D02*
X187899571Y-81574285D01*
X187899571Y-81145714D02*
X187863857Y-81110000D01*
X187792428Y-81074285D01*
X187685285Y-81074285D01*
X187613857Y-81110000D01*
X187578142Y-81181428D01*
X187578142Y-81574285D01*
X192578142Y-82120714D02*
X192542428Y-82085000D01*
X192471000Y-82049285D01*
X192292428Y-82049285D01*
X192221000Y-82085000D01*
X192185285Y-82120714D01*
X192149571Y-82192142D01*
X192149571Y-82263571D01*
X192185285Y-82370714D01*
X192613857Y-82799285D01*
X192149571Y-82799285D01*
X191685285Y-82049285D02*
X191613857Y-82049285D01*
X191542428Y-82085000D01*
X191506714Y-82120714D01*
X191471000Y-82192142D01*
X191435285Y-82335000D01*
X191435285Y-82513571D01*
X191471000Y-82656428D01*
X191506714Y-82727857D01*
X191542428Y-82763571D01*
X191613857Y-82799285D01*
X191685285Y-82799285D01*
X191756714Y-82763571D01*
X191792428Y-82727857D01*
X191828142Y-82656428D01*
X191863857Y-82513571D01*
X191863857Y-82335000D01*
X191828142Y-82192142D01*
X191792428Y-82120714D01*
X191756714Y-82085000D01*
X191685285Y-82049285D01*
X190721000Y-82799285D02*
X191149571Y-82799285D01*
X190935285Y-82799285D02*
X190935285Y-82049285D01*
X191006714Y-82156428D01*
X191078142Y-82227857D01*
X191149571Y-82263571D01*
X190292428Y-82370714D02*
X190363857Y-82335000D01*
X190399571Y-82299285D01*
X190435285Y-82227857D01*
X190435285Y-82192142D01*
X190399571Y-82120714D01*
X190363857Y-82085000D01*
X190292428Y-82049285D01*
X190149571Y-82049285D01*
X190078142Y-82085000D01*
X190042428Y-82120714D01*
X190006714Y-82192142D01*
X190006714Y-82227857D01*
X190042428Y-82299285D01*
X190078142Y-82335000D01*
X190149571Y-82370714D01*
X190292428Y-82370714D01*
X190363857Y-82406428D01*
X190399571Y-82442142D01*
X190435285Y-82513571D01*
X190435285Y-82656428D01*
X190399571Y-82727857D01*
X190363857Y-82763571D01*
X190292428Y-82799285D01*
X190149571Y-82799285D01*
X190078142Y-82763571D01*
X190042428Y-82727857D01*
X190006714Y-82656428D01*
X190006714Y-82513571D01*
X190042428Y-82442142D01*
X190078142Y-82406428D01*
X190149571Y-82370714D01*
X189685285Y-82513571D02*
X189113857Y-82513571D01*
X188613857Y-82049285D02*
X188542428Y-82049285D01*
X188471000Y-82085000D01*
X188435285Y-82120714D01*
X188399571Y-82192142D01*
X188363857Y-82335000D01*
X188363857Y-82513571D01*
X188399571Y-82656428D01*
X188435285Y-82727857D01*
X188471000Y-82763571D01*
X188542428Y-82799285D01*
X188613857Y-82799285D01*
X188685285Y-82763571D01*
X188721000Y-82727857D01*
X188756714Y-82656428D01*
X188792428Y-82513571D01*
X188792428Y-82335000D01*
X188756714Y-82192142D01*
X188721000Y-82120714D01*
X188685285Y-82085000D01*
X188613857Y-82049285D01*
X187935285Y-82370714D02*
X188006714Y-82335000D01*
X188042428Y-82299285D01*
X188078142Y-82227857D01*
X188078142Y-82192142D01*
X188042428Y-82120714D01*
X188006714Y-82085000D01*
X187935285Y-82049285D01*
X187792428Y-82049285D01*
X187721000Y-82085000D01*
X187685285Y-82120714D01*
X187649571Y-82192142D01*
X187649571Y-82227857D01*
X187685285Y-82299285D01*
X187721000Y-82335000D01*
X187792428Y-82370714D01*
X187935285Y-82370714D01*
X188006714Y-82406428D01*
X188042428Y-82442142D01*
X188078142Y-82513571D01*
X188078142Y-82656428D01*
X188042428Y-82727857D01*
X188006714Y-82763571D01*
X187935285Y-82799285D01*
X187792428Y-82799285D01*
X187721000Y-82763571D01*
X187685285Y-82727857D01*
X187649571Y-82656428D01*
X187649571Y-82513571D01*
X187685285Y-82442142D01*
X187721000Y-82406428D01*
X187792428Y-82370714D01*
X187328142Y-82513571D02*
X186756714Y-82513571D01*
X186006714Y-82799285D02*
X186435285Y-82799285D01*
X186221000Y-82799285D02*
X186221000Y-82049285D01*
X186292428Y-82156428D01*
X186363857Y-82227857D01*
X186435285Y-82263571D01*
X185649571Y-82799285D02*
X185506714Y-82799285D01*
X185435285Y-82763571D01*
X185399571Y-82727857D01*
X185328142Y-82620714D01*
X185292428Y-82477857D01*
X185292428Y-82192142D01*
X185328142Y-82120714D01*
X185363857Y-82085000D01*
X185435285Y-82049285D01*
X185578142Y-82049285D01*
X185649571Y-82085000D01*
X185685285Y-82120714D01*
X185721000Y-82192142D01*
X185721000Y-82370714D01*
X185685285Y-82442142D01*
X185649571Y-82477857D01*
X185578142Y-82513571D01*
X185435285Y-82513571D01*
X185363857Y-82477857D01*
X185328142Y-82442142D01*
X185292428Y-82370714D01*
D12*
X182940000Y-73600000D02*
X181610000Y-73600000D01*
X182940000Y-74930000D02*
X182940000Y-73600000D01*
X182940000Y-76200000D02*
X180280000Y-76200000D01*
X180280000Y-76200000D02*
X180280000Y-86420000D01*
X182940000Y-76200000D02*
X182940000Y-86420000D01*
X182940000Y-86420000D02*
X180280000Y-86420000D01*
D10*
X181943333Y-72052380D02*
X181943333Y-72766666D01*
X181990952Y-72909523D01*
X182086190Y-73004761D01*
X182229047Y-73052380D01*
X182324285Y-73052380D01*
X181514761Y-72147619D02*
X181467142Y-72100000D01*
X181371904Y-72052380D01*
X181133809Y-72052380D01*
X181038571Y-72100000D01*
X180990952Y-72147619D01*
X180943333Y-72242857D01*
X180943333Y-72338095D01*
X180990952Y-72480952D01*
X181562380Y-73052380D01*
X180943333Y-73052380D01*
M02*
