G04 #@! TF.GenerationSoftware,KiCad,Pcbnew,(5.1.10)-1*
G04 #@! TF.CreationDate,2021-07-27T11:24:41-04:00*
G04 #@! TF.ProjectId,7ac76369a0fd96fdd889728fa7417171,37616337-3633-4363-9961-306664393666,rev?*
G04 #@! TF.SameCoordinates,Original*
G04 #@! TF.FileFunction,Soldermask,Top*
G04 #@! TF.FilePolarity,Negative*
%FSLAX46Y46*%
G04 Gerber Fmt 4.6, Leading zero omitted, Abs format (unit mm)*
G04 Created by KiCad (PCBNEW (5.1.10)-1) date 2021-07-27 11:24:41*
%MOMM*%
%LPD*%
G01*
G04 APERTURE LIST*
%ADD10O,2.100000X2.100000*%
G04 APERTURE END LIST*
G36*
G01*
X184720000Y-76275000D02*
X186120000Y-76275000D01*
G75*
G02*
X186320000Y-76475000I0J-200000D01*
G01*
X186320000Y-77625000D01*
G75*
G02*
X186120000Y-77825000I-200000J0D01*
G01*
X184720000Y-77825000D01*
G75*
G02*
X184520000Y-77625000I0J200000D01*
G01*
X184520000Y-76475000D01*
G75*
G02*
X184720000Y-76275000I200000J0D01*
G01*
G37*
G36*
G01*
X184720000Y-74575000D02*
X186120000Y-74575000D01*
G75*
G02*
X186320000Y-74775000I0J-200000D01*
G01*
X186320000Y-75925000D01*
G75*
G02*
X186120000Y-76125000I-200000J0D01*
G01*
X184720000Y-76125000D01*
G75*
G02*
X184520000Y-75925000I0J200000D01*
G01*
X184520000Y-74775000D01*
G75*
G02*
X184720000Y-74575000I200000J0D01*
G01*
G37*
G36*
G01*
X184720000Y-78385000D02*
X186120000Y-78385000D01*
G75*
G02*
X186320000Y-78585000I0J-200000D01*
G01*
X186320000Y-79735000D01*
G75*
G02*
X186120000Y-79935000I-200000J0D01*
G01*
X184720000Y-79935000D01*
G75*
G02*
X184520000Y-79735000I0J200000D01*
G01*
X184520000Y-78585000D01*
G75*
G02*
X184720000Y-78385000I200000J0D01*
G01*
G37*
G36*
G01*
X184720000Y-80085000D02*
X186120000Y-80085000D01*
G75*
G02*
X186320000Y-80285000I0J-200000D01*
G01*
X186320000Y-81435000D01*
G75*
G02*
X186120000Y-81635000I-200000J0D01*
G01*
X184720000Y-81635000D01*
G75*
G02*
X184520000Y-81435000I0J200000D01*
G01*
X184520000Y-80285000D01*
G75*
G02*
X184720000Y-80085000I200000J0D01*
G01*
G37*
G36*
G01*
X184720000Y-82195000D02*
X186120000Y-82195000D01*
G75*
G02*
X186320000Y-82395000I0J-200000D01*
G01*
X186320000Y-83545000D01*
G75*
G02*
X186120000Y-83745000I-200000J0D01*
G01*
X184720000Y-83745000D01*
G75*
G02*
X184520000Y-83545000I0J200000D01*
G01*
X184520000Y-82395000D01*
G75*
G02*
X184720000Y-82195000I200000J0D01*
G01*
G37*
G36*
G01*
X184720000Y-83895000D02*
X186120000Y-83895000D01*
G75*
G02*
X186320000Y-84095000I0J-200000D01*
G01*
X186320000Y-85245000D01*
G75*
G02*
X186120000Y-85445000I-200000J0D01*
G01*
X184720000Y-85445000D01*
G75*
G02*
X184520000Y-85245000I0J200000D01*
G01*
X184520000Y-84095000D01*
G75*
G02*
X184720000Y-83895000I200000J0D01*
G01*
G37*
G36*
G01*
X193260000Y-77050000D02*
X193260000Y-75350000D01*
G75*
G02*
X193460000Y-75150000I200000J0D01*
G01*
X195160000Y-75150000D01*
G75*
G02*
X195360000Y-75350000I0J-200000D01*
G01*
X195360000Y-77050000D01*
G75*
G02*
X195160000Y-77250000I-200000J0D01*
G01*
X193460000Y-77250000D01*
G75*
G02*
X193260000Y-77050000I0J200000D01*
G01*
G37*
D10*
X196850000Y-76200000D03*
X194310000Y-78740000D03*
X196850000Y-78740000D03*
X194310000Y-81280000D03*
X196850000Y-81280000D03*
X194310000Y-83820000D03*
X196850000Y-83820000D03*
G36*
G01*
X182660000Y-74080000D02*
X182660000Y-75780000D01*
G75*
G02*
X182460000Y-75980000I-200000J0D01*
G01*
X180760000Y-75980000D01*
G75*
G02*
X180560000Y-75780000I0J200000D01*
G01*
X180560000Y-74080000D01*
G75*
G02*
X180760000Y-73880000I200000J0D01*
G01*
X182460000Y-73880000D01*
G75*
G02*
X182660000Y-74080000I0J-200000D01*
G01*
G37*
X181610000Y-77470000D03*
X181610000Y-80010000D03*
X181610000Y-82550000D03*
X181610000Y-85090000D03*
G36*
G01*
X187570000Y-75575000D02*
X187570000Y-74925000D01*
G75*
G02*
X187770000Y-74725000I200000J0D01*
G01*
X188830000Y-74725000D01*
G75*
G02*
X189030000Y-74925000I0J-200000D01*
G01*
X189030000Y-75575000D01*
G75*
G02*
X188830000Y-75775000I-200000J0D01*
G01*
X187770000Y-75775000D01*
G75*
G02*
X187570000Y-75575000I0J200000D01*
G01*
G37*
G36*
G01*
X187570000Y-76525000D02*
X187570000Y-75875000D01*
G75*
G02*
X187770000Y-75675000I200000J0D01*
G01*
X188830000Y-75675000D01*
G75*
G02*
X189030000Y-75875000I0J-200000D01*
G01*
X189030000Y-76525000D01*
G75*
G02*
X188830000Y-76725000I-200000J0D01*
G01*
X187770000Y-76725000D01*
G75*
G02*
X187570000Y-76525000I0J200000D01*
G01*
G37*
G36*
G01*
X187570000Y-77475000D02*
X187570000Y-76825000D01*
G75*
G02*
X187770000Y-76625000I200000J0D01*
G01*
X188830000Y-76625000D01*
G75*
G02*
X189030000Y-76825000I0J-200000D01*
G01*
X189030000Y-77475000D01*
G75*
G02*
X188830000Y-77675000I-200000J0D01*
G01*
X187770000Y-77675000D01*
G75*
G02*
X187570000Y-77475000I0J200000D01*
G01*
G37*
G36*
G01*
X189770000Y-77475000D02*
X189770000Y-76825000D01*
G75*
G02*
X189970000Y-76625000I200000J0D01*
G01*
X191030000Y-76625000D01*
G75*
G02*
X191230000Y-76825000I0J-200000D01*
G01*
X191230000Y-77475000D01*
G75*
G02*
X191030000Y-77675000I-200000J0D01*
G01*
X189970000Y-77675000D01*
G75*
G02*
X189770000Y-77475000I0J200000D01*
G01*
G37*
G36*
G01*
X189770000Y-75575000D02*
X189770000Y-74925000D01*
G75*
G02*
X189970000Y-74725000I200000J0D01*
G01*
X191030000Y-74725000D01*
G75*
G02*
X191230000Y-74925000I0J-200000D01*
G01*
X191230000Y-75575000D01*
G75*
G02*
X191030000Y-75775000I-200000J0D01*
G01*
X189970000Y-75775000D01*
G75*
G02*
X189770000Y-75575000I0J200000D01*
G01*
G37*
G36*
G01*
X189770000Y-76525000D02*
X189770000Y-75875000D01*
G75*
G02*
X189970000Y-75675000I200000J0D01*
G01*
X191030000Y-75675000D01*
G75*
G02*
X191230000Y-75875000I0J-200000D01*
G01*
X191230000Y-76525000D01*
G75*
G02*
X191030000Y-76725000I-200000J0D01*
G01*
X189970000Y-76725000D01*
G75*
G02*
X189770000Y-76525000I0J200000D01*
G01*
G37*
G36*
G01*
X189770000Y-80335000D02*
X189770000Y-79685000D01*
G75*
G02*
X189970000Y-79485000I200000J0D01*
G01*
X191030000Y-79485000D01*
G75*
G02*
X191230000Y-79685000I0J-200000D01*
G01*
X191230000Y-80335000D01*
G75*
G02*
X191030000Y-80535000I-200000J0D01*
G01*
X189970000Y-80535000D01*
G75*
G02*
X189770000Y-80335000I0J200000D01*
G01*
G37*
G36*
G01*
X189770000Y-79385000D02*
X189770000Y-78735000D01*
G75*
G02*
X189970000Y-78535000I200000J0D01*
G01*
X191030000Y-78535000D01*
G75*
G02*
X191230000Y-78735000I0J-200000D01*
G01*
X191230000Y-79385000D01*
G75*
G02*
X191030000Y-79585000I-200000J0D01*
G01*
X189970000Y-79585000D01*
G75*
G02*
X189770000Y-79385000I0J200000D01*
G01*
G37*
G36*
G01*
X189770000Y-81285000D02*
X189770000Y-80635000D01*
G75*
G02*
X189970000Y-80435000I200000J0D01*
G01*
X191030000Y-80435000D01*
G75*
G02*
X191230000Y-80635000I0J-200000D01*
G01*
X191230000Y-81285000D01*
G75*
G02*
X191030000Y-81485000I-200000J0D01*
G01*
X189970000Y-81485000D01*
G75*
G02*
X189770000Y-81285000I0J200000D01*
G01*
G37*
G36*
G01*
X187570000Y-81285000D02*
X187570000Y-80635000D01*
G75*
G02*
X187770000Y-80435000I200000J0D01*
G01*
X188830000Y-80435000D01*
G75*
G02*
X189030000Y-80635000I0J-200000D01*
G01*
X189030000Y-81285000D01*
G75*
G02*
X188830000Y-81485000I-200000J0D01*
G01*
X187770000Y-81485000D01*
G75*
G02*
X187570000Y-81285000I0J200000D01*
G01*
G37*
G36*
G01*
X187570000Y-80335000D02*
X187570000Y-79685000D01*
G75*
G02*
X187770000Y-79485000I200000J0D01*
G01*
X188830000Y-79485000D01*
G75*
G02*
X189030000Y-79685000I0J-200000D01*
G01*
X189030000Y-80335000D01*
G75*
G02*
X188830000Y-80535000I-200000J0D01*
G01*
X187770000Y-80535000D01*
G75*
G02*
X187570000Y-80335000I0J200000D01*
G01*
G37*
G36*
G01*
X187570000Y-79385000D02*
X187570000Y-78735000D01*
G75*
G02*
X187770000Y-78535000I200000J0D01*
G01*
X188830000Y-78535000D01*
G75*
G02*
X189030000Y-78735000I0J-200000D01*
G01*
X189030000Y-79385000D01*
G75*
G02*
X188830000Y-79585000I-200000J0D01*
G01*
X187770000Y-79585000D01*
G75*
G02*
X187570000Y-79385000I0J200000D01*
G01*
G37*
G36*
G01*
X187570000Y-83195000D02*
X187570000Y-82545000D01*
G75*
G02*
X187770000Y-82345000I200000J0D01*
G01*
X188830000Y-82345000D01*
G75*
G02*
X189030000Y-82545000I0J-200000D01*
G01*
X189030000Y-83195000D01*
G75*
G02*
X188830000Y-83395000I-200000J0D01*
G01*
X187770000Y-83395000D01*
G75*
G02*
X187570000Y-83195000I0J200000D01*
G01*
G37*
G36*
G01*
X187570000Y-84145000D02*
X187570000Y-83495000D01*
G75*
G02*
X187770000Y-83295000I200000J0D01*
G01*
X188830000Y-83295000D01*
G75*
G02*
X189030000Y-83495000I0J-200000D01*
G01*
X189030000Y-84145000D01*
G75*
G02*
X188830000Y-84345000I-200000J0D01*
G01*
X187770000Y-84345000D01*
G75*
G02*
X187570000Y-84145000I0J200000D01*
G01*
G37*
G36*
G01*
X187570000Y-85095000D02*
X187570000Y-84445000D01*
G75*
G02*
X187770000Y-84245000I200000J0D01*
G01*
X188830000Y-84245000D01*
G75*
G02*
X189030000Y-84445000I0J-200000D01*
G01*
X189030000Y-85095000D01*
G75*
G02*
X188830000Y-85295000I-200000J0D01*
G01*
X187770000Y-85295000D01*
G75*
G02*
X187570000Y-85095000I0J200000D01*
G01*
G37*
G36*
G01*
X189770000Y-85095000D02*
X189770000Y-84445000D01*
G75*
G02*
X189970000Y-84245000I200000J0D01*
G01*
X191030000Y-84245000D01*
G75*
G02*
X191230000Y-84445000I0J-200000D01*
G01*
X191230000Y-85095000D01*
G75*
G02*
X191030000Y-85295000I-200000J0D01*
G01*
X189970000Y-85295000D01*
G75*
G02*
X189770000Y-85095000I0J200000D01*
G01*
G37*
G36*
G01*
X189770000Y-83195000D02*
X189770000Y-82545000D01*
G75*
G02*
X189970000Y-82345000I200000J0D01*
G01*
X191030000Y-82345000D01*
G75*
G02*
X191230000Y-82545000I0J-200000D01*
G01*
X191230000Y-83195000D01*
G75*
G02*
X191030000Y-83395000I-200000J0D01*
G01*
X189970000Y-83395000D01*
G75*
G02*
X189770000Y-83195000I0J200000D01*
G01*
G37*
G36*
G01*
X189770000Y-84145000D02*
X189770000Y-83495000D01*
G75*
G02*
X189970000Y-83295000I200000J0D01*
G01*
X191030000Y-83295000D01*
G75*
G02*
X191230000Y-83495000I0J-200000D01*
G01*
X191230000Y-84145000D01*
G75*
G02*
X191030000Y-84345000I-200000J0D01*
G01*
X189970000Y-84345000D01*
G75*
G02*
X189770000Y-84145000I0J200000D01*
G01*
G37*
M02*
